<svg id="39e59ac7-95ff-4f11-8f58-94abf209d809" data-name="Layer 3" xmlns="http://www.w3.org/2000/svg" xmlns:xlink="http://www.w3.org/1999/xlink" viewBox="0 0 1309 836.25"><defs><linearGradient id="320bcabf-452a-436f-ac5f-b1f81925780a" x1="345" y1="1188" x2="745" y2="1188" gradientUnits="userSpaceOnUse"><stop offset="0" stop-color="#3fff76"/><stop offset="1" stop-color="#007d94"/></linearGradient><linearGradient id="99a72a66-89e9-4297-a639-6c942c7a8238" x1="800.74" y1="1072.88" x2="1200.74" y2="1072.88" xlink:href="#320bcabf-452a-436f-ac5f-b1f81925780a"/><linearGradient id="bc1d5c9c-afb3-45ad-98b9-6f4250a3c3b2" x1="1254" y1="1135" x2="1654" y2="1135" xlink:href="#320bcabf-452a-436f-ac5f-b1f81925780a"/></defs><title>Saiko varying stems gradient</title><path d="M745,1291c0,110.46-89.54,200-200,200s-200-89.54-200-200,89.54-200,200-200a199,199,0,0,1,99.77,26.63V885h93S745,1272.5,745,1291Z" transform="translate(-345 -654.75)" fill="url(#320bcabf-452a-436f-ac5f-b1f81925780a)"/><path d="M1200.74,1291c0,110.46-89.55,200-200,200s-200-89.54-200-200,89.54-200,200-200a199,199,0,0,1,102,28V654.75h93S1200.74,1275.72,1200.74,1291Z" transform="translate(-345 -654.75)" fill="url(#99a72a66-89e9-4297-a639-6c942c7a8238)"/><path d="M1653.9,1284.81c.07,2,.1,4.12.1,6.19,0,110.46-89.54,200-200,200s-200-89.54-200-200,89.54-200,200-200a199,199,0,0,1,107,31V779h93Z" transform="translate(-345 -654.75)" fill="url(#bc1d5c9c-afb3-45ad-98b9-6f4250a3c3b2)"/></svg>